<svg width="512" height="512" viewBox="0 0 512 512" fill="none" xmlns="http://www.w3.org/2000/svg">
<g clip-path="url(#clip0_2109_21)">
<path d="M256 3.80666e-06C114.617 3.80666e-06 0 114.617 0 256C0 397.383 114.617 512 256 512C397.383 512 512 397.383 512 256C512.006 222.38 505.388 189.088 492.525 158.026C479.662 126.964 460.805 98.7407 437.032 74.9677C413.259 51.1948 385.036 32.3382 353.974 19.475C322.912 6.61188 289.62 -0.00579425 256 3.80666e-06ZM256 476.69C134.118 476.69 35.3103 377.882 35.3103 256C35.3103 134.118 134.118 35.3103 256 35.3103C377.882 35.3103 476.69 134.118 476.69 256C476.584 377.838 377.838 476.584 256 476.69Z" fill="#B460CB"/>
<path d="M255.999 167.724C280.376 167.724 300.137 147.963 300.137 123.586C300.137 99.2095 280.376 79.4482 255.999 79.4482C231.623 79.4482 211.861 99.2095 211.861 123.586C211.861 147.963 231.623 167.724 255.999 167.724Z" fill="#B460CB"/>
<path d="M379.586 194.26L286.878 202.575C283.471 202.884 280.046 203.035 276.621 203.035H235.378C231.953 203.035 228.537 202.884 225.121 202.575L132.413 194.26C130.089 194.058 127.747 194.318 125.524 195.026C123.3 195.734 121.239 196.876 119.46 198.386C117.681 199.895 116.218 201.743 115.157 203.821C114.096 205.899 113.458 208.167 113.279 210.493C113.1 212.82 113.383 215.159 114.114 217.375C114.844 219.591 116.007 221.641 117.534 223.405C119.061 225.169 120.923 226.613 123.012 227.653C125.101 228.693 127.375 229.309 129.703 229.464L204.632 236.262C209.018 236.66 213.097 238.684 216.068 241.936C219.039 245.188 220.687 249.433 220.689 253.837V274.132C220.688 279.652 219.652 285.122 217.635 290.26L175.006 398.822C174.055 400.936 173.53 403.217 173.46 405.535C173.391 407.852 173.778 410.161 174.601 412.328C175.423 414.496 176.665 416.481 178.254 418.169C179.844 419.857 181.75 421.215 183.865 422.166C185.979 423.117 188.26 423.643 190.578 423.712C192.895 423.782 195.204 423.394 197.372 422.572C199.539 421.749 201.524 420.508 203.212 418.918C204.9 417.329 206.258 415.422 207.209 413.308L247.993 314.315C248.646 312.733 249.754 311.381 251.176 310.428C252.598 309.476 254.27 308.967 255.982 308.966H256.017C257.731 308.966 259.406 309.476 260.83 310.429C262.254 311.383 263.362 312.739 264.015 314.324L304.798 413.308C305.719 415.468 307.061 417.424 308.746 419.059C310.431 420.695 312.426 421.978 314.613 422.833C316.801 423.688 319.136 424.098 321.484 424.039C323.832 423.98 326.144 423.453 328.286 422.49C330.428 421.526 332.356 420.145 333.957 418.427C335.558 416.709 336.8 414.689 337.611 412.485C338.422 410.28 338.785 407.937 338.679 405.591C338.572 403.245 337.999 400.943 336.992 398.822L294.355 290.26C292.34 285.119 291.307 279.645 291.31 274.123V253.837C291.312 249.431 292.961 245.185 295.934 241.933C298.907 238.681 302.988 236.658 307.376 236.262L382.296 229.464C384.624 229.309 386.898 228.693 388.987 227.653C391.076 226.613 392.937 225.169 394.465 223.405C395.992 221.641 397.155 219.591 397.885 217.375C398.615 215.159 398.899 212.82 398.72 210.493C398.541 208.167 397.903 205.899 396.842 203.821C395.781 201.743 394.318 199.895 392.539 198.386C390.759 196.876 388.699 195.734 386.475 195.026C384.252 194.318 381.91 194.058 379.586 194.26Z" fill="#B460CB"/>
</g>
<defs>
<clipPath id="clip0_2109_21">
<rect width="512" height="512" fill="white"/>
</clipPath>
</defs>
</svg>
