<svg version="1.2" xmlns="http://www.w3.org/2000/svg" viewBox="0 0 159 159" width="159" height="159">
	<style>
		.s0 { fill: #3268ff } 
	</style>
	<path fill-rule="evenodd" class="s0" d="m75.99 8.83c1.17-1.17 2.76-1.83 4.42-1.83 1.65 0 3.24 0.66 4.41 1.83l50 50q0.93 0.87 1.45 2.03 0.52 1.16 0.54 2.43 0.02 1.27-0.45 2.45-0.48 1.18-1.38 2.08-0.9 0.9-2.08 1.38-1.18 0.47-2.45 0.45-1.27-0.03-2.43-0.54-1.16-0.52-2.03-1.45l-39.33-39.33v118.25c0 1.66-0.66 3.24-1.83 4.42-1.18 1.17-2.77 1.83-4.42 1.83-1.66 0-3.25-0.66-4.42-1.83-1.18-1.18-1.83-2.76-1.83-4.42v-118.25l-39.34 39.33q-0.87 0.93-2.03 1.45-1.16 0.51-2.43 0.54-1.27 0.02-2.45-0.45-1.18-0.48-2.08-1.38-0.9-0.9-1.38-2.08-0.47-1.18-0.45-2.45 0.03-1.27 0.54-2.43 0.52-1.16 1.45-2.03z"/>
</svg>