<svg width="159" height="159" viewBox="0 0 159 159" fill="none" xmlns="http://www.w3.org/2000/svg">
<path fill-rule="evenodd" clip-rule="evenodd" d="M75.9892 8.82783C77.1611 7.65741 78.7497 7 80.4059 7C82.0622 7 83.6507 7.65741 84.8226 8.82783L134.823 58.8278C135.437 59.4 135.929 60.09 136.271 60.8567C136.612 61.6233 136.796 62.451 136.811 63.2901C136.826 64.1293 136.671 64.9629 136.357 65.7411C136.043 66.5194 135.575 67.2263 134.981 67.8198C134.388 68.4133 133.681 68.8812 132.903 69.1955C132.124 69.5099 131.291 69.6642 130.452 69.6494C129.612 69.6346 128.785 69.4509 128.018 69.1093C127.251 68.7677 126.561 68.2752 125.989 67.6612L86.6559 28.3278V146.578C86.6559 148.235 85.9974 149.825 84.8253 150.997C83.6532 152.169 82.0635 152.828 80.4059 152.828C78.7483 152.828 77.1586 152.169 75.9865 150.997C74.8144 149.825 74.1559 148.235 74.1559 146.578V28.3278L34.8226 67.6612C34.2504 68.2752 33.5604 68.7677 32.7937 69.1093C32.0271 69.4509 31.1994 69.6346 30.3603 69.6494C29.5211 69.6642 28.6875 69.5099 27.9093 69.1955C27.131 68.8812 26.4241 68.4133 25.8306 67.8198C25.2371 67.2263 24.7692 66.5194 24.4549 65.7411C24.1405 64.9629 23.9862 64.1293 24.001 63.2901C24.0158 62.451 24.1995 61.6233 24.5411 60.8567C24.8827 60.09 25.3752 59.4 25.9892 58.8278L75.9892 8.82783Z" fill="white"/>
</svg>
