<svg width="1829" height="287" viewBox="0 0 1829 287" fill="none" xmlns="http://www.w3.org/2000/svg">
<path d="M128.889 6.16849C154.702 5.8445 180.033 13.1816 201.676 27.2535C219.49 41.7476 226.199 48.1521 243.275 69.4995L193.566 120.43C188.858 109.457 173.444 92.5812 163.434 86.0728C153.424 79.5646 141.708 76.1701 129.77 76.3199C117.831 76.4697 106.204 80.1571 96.3602 86.9146C86.5168 93.672 78.898 103.196 74.4677 114.284C70.0373 125.371 68.9945 137.523 71.4706 149.203C73.9467 160.884 79.8308 171.568 88.3788 179.904C96.9268 188.24 107.755 193.854 119.493 196.036C125.327 197.121 131.256 197.331 137.092 196.693L264.291 62.689C268.266 57.8577 272.549 53.3261 277.146 49.148L278.959 47.2378L279.304 47.2339C287.049 40.522 295.649 34.7941 305.128 30.2935C327.958 19.4536 353.49 15.6277 378.495 19.2984C403.5 22.9691 426.855 33.9716 445.607 50.9156C464.358 67.8595 477.663 89.9837 483.841 114.49C490.019 138.996 488.791 164.784 480.313 188.592C471.834 212.4 456.486 233.16 436.209 248.245C415.932 263.331 394.164 267.061 368.924 268.339C359.973 268.792 350.728 268.929 341.555 268.34H192.04L241.544 207.98L357.802 205.532C359.953 205.262 361.702 205.077 362.938 205.014C374.664 204.42 385.951 200.362 395.371 193.354C404.791 186.345 411.922 176.701 415.86 165.64C419.799 154.579 420.37 142.598 417.5 131.213C414.63 119.828 408.448 109.55 399.736 101.678C391.025 93.8064 380.175 88.6941 368.558 86.9888C356.941 85.2835 345.079 87.0612 334.473 92.0972C329.171 94.6145 322.996 98.5702 315.783 105.173L177.1 267.12C171.519 267.94 130.424 268.29 118.772 266.679C114.726 266.313 110.688 265.759 106.671 265.012C81.29 260.294 57.8785 248.155 39.3964 230.131C20.9143 212.107 8.19157 189.008 2.83778 163.753C-2.51597 138.499 -0.260833 112.224 9.3182 88.2515C18.8974 64.2788 35.3699 43.6845 56.6532 29.0738C77.9365 14.463 103.075 6.49252 128.889 6.16849Z" fill="url(#paint0_linear_408_43)"/>
<path d="M541.953 71.6C541.953 31.8 565.353 9.00001 606.553 9.00001C647.353 9.00001 668.553 31.8 668.553 61.2H638.953C638.953 44.6 626.353 34.4 606.553 34.4C584.153 34.4 571.553 47.8 571.553 71.6V92.6C571.553 116.4 584.153 130 606.553 130C626.353 130 638.953 119.6 638.953 103H668.553C668.553 132.4 647.353 155.4 606.553 155.4C565.353 155.4 541.953 132.4 541.953 92.6V71.6ZM682.963 101.6V84.6C682.963 50.2 704.963 30.4 743.363 30.4C781.963 30.4 803.963 50.2 803.963 84.6V101.6C803.963 136 781.963 155.6 743.363 155.6C704.963 155.6 682.963 136 682.963 101.6ZM775.563 84.6C775.563 65.6 763.963 54.6 743.363 54.6C722.763 54.6 711.163 65.6 711.163 84.6V101.6C711.163 120.6 722.763 131.6 743.363 131.6C763.963 131.6 775.563 120.6 775.563 101.6V84.6ZM940.492 0V152.2H912.092V138.8C904.292 149.8 891.292 155.6 873.492 155.6C839.092 155.6 819.492 136 819.492 101.6V84.6C819.492 50.2 839.092 30.4 873.492 30.4C891.292 30.4 904.292 36.4 912.092 47.4V0H940.492ZM879.892 131.8C900.492 131.8 912.092 121.4 912.092 103.6V82.4C912.092 64.8 900.492 54.4 879.892 54.4C859.292 54.4 847.692 65.6 847.692 84.6V101.6C847.692 120.6 859.292 131.8 879.892 131.8ZM987.921 101.6C987.921 120.6 999.521 131.6 1020.12 131.6C1037.72 131.6 1047.92 125 1047.92 113.6H1076.12C1076.12 140.4 1055.72 155.6 1020.12 155.6C981.721 155.6 959.721 136 959.721 101.6V84.6C959.721 50.2 981.721 30.4 1020.12 30.4C1057.12 30.4 1078.52 50.2 1078.52 84.6V101.6H987.921ZM988.521 77.4H1049.52C1046.92 62.8 1036.72 54.6 1020.12 54.6C1002.32 54.6 991.121 62.8 988.521 77.4ZM1157.9 12.2C1199.1 12.2 1222.5 35.2 1222.5 71.6V92.6C1222.5 129 1199.1 152 1157.9 152H1098.3V12.2H1157.9ZM1157.9 126.6C1180.3 126.6 1192.9 113 1192.9 92.6V71.6C1192.9 51.2 1180.3 37.6 1157.9 37.6H1127.9V126.6H1157.9ZM1266.05 101.6C1266.05 120.6 1277.65 131.6 1298.25 131.6C1315.85 131.6 1326.05 125 1326.05 113.6H1354.25C1354.25 140.4 1333.85 155.6 1298.25 155.6C1259.85 155.6 1237.85 136 1237.85 101.6V84.6C1237.85 50.2 1259.85 30.4 1298.25 30.4C1335.25 30.4 1356.65 50.2 1356.65 84.6V101.6H1266.05ZM1266.65 77.4H1327.65C1325.05 62.8 1314.85 54.6 1298.25 54.6C1280.45 54.6 1269.25 62.8 1266.65 77.4ZM1400.23 101.6C1400.23 120.6 1411.83 131.6 1432.43 131.6C1450.03 131.6 1460.23 125 1460.23 113.6H1488.43C1488.43 140.4 1468.03 155.6 1432.43 155.6C1394.03 155.6 1372.03 136 1372.03 101.6V84.6C1372.03 50.2 1394.03 30.4 1432.43 30.4C1469.43 30.4 1490.83 50.2 1490.83 84.6V101.6H1400.23ZM1400.83 77.4H1461.83C1459.23 62.8 1449.03 54.6 1432.43 54.6C1414.63 54.6 1403.43 62.8 1400.83 77.4ZM1510.01 33.8H1538.21V47.4C1546.01 36.4 1559.01 30.4 1576.81 30.4C1611.21 30.4 1631.01 50.2 1631.01 84.6V101.6C1631.01 136 1611.21 155.6 1576.81 155.6C1559.01 155.6 1546.01 149.8 1538.21 138.8V194.6H1510.01V33.8ZM1570.41 131.8C1591.01 131.8 1602.61 120.6 1602.61 101.6V84.6C1602.61 65.6 1591.01 54.4 1570.41 54.4C1549.81 54.4 1538.21 64.8 1538.21 82.4V103.6C1538.21 121.4 1549.81 131.8 1570.41 131.8Z" fill="#176698"/>
<path d="M1695.24 10.2002H1730.64L1786.44 150H1754.64L1742.84 120.4H1683.04L1671.24 150H1639.64L1695.24 10.2002ZM1693.24 95.0002H1732.64L1713.04 45.4002L1693.24 95.0002ZM1799.28 10.2002H1828.88V150H1799.28V10.2002Z" fill="#178F7A"/>
<path d="M549.217 214.652V208.105H594.922V214.652H575.759V269.057H568.38V214.652H549.217ZM612.381 241.557V269.057H605.359V208.105H612.381V230.485H612.977C614.047 228.125 615.655 226.25 617.797 224.86C619.96 223.452 622.836 222.748 626.426 222.748C629.541 222.748 632.268 223.372 634.609 224.623C636.95 225.853 638.765 227.748 640.054 230.307C641.364 232.847 642.019 236.081 642.019 240.009V269.057H634.996V240.486C634.996 236.855 634.053 234.047 632.169 232.063C630.304 230.06 627.715 229.058 624.403 229.058C622.102 229.058 620.039 229.543 618.214 230.516C616.408 231.488 614.98 232.906 613.928 234.771C612.898 236.637 612.381 238.899 612.381 241.557ZM654.865 269.057V223.343H661.888V269.057H654.865ZM658.436 215.724C657.067 215.724 655.887 215.257 654.896 214.325C653.923 213.392 653.438 212.272 653.438 210.962C653.438 209.653 653.923 208.531 654.896 207.599C655.887 206.666 657.067 206.2 658.436 206.2C659.805 206.2 660.975 206.666 661.948 207.599C662.94 208.531 663.436 209.653 663.436 210.962C663.436 212.272 662.94 213.392 661.948 214.325C660.975 215.257 659.805 215.724 658.436 215.724ZM681.773 241.557V269.057H674.751V223.343H681.535V230.485H682.129C683.201 228.164 684.827 226.3 687.01 224.891C689.192 223.462 692.009 222.748 695.46 222.748C698.555 222.748 701.263 223.383 703.584 224.653C705.905 225.902 707.711 227.807 709 230.367C710.289 232.906 710.934 236.121 710.934 240.009V269.057H703.912V240.486C703.912 236.895 702.979 234.097 701.114 232.093C699.249 230.069 696.691 229.058 693.437 229.058C691.195 229.058 689.192 229.543 687.427 230.516C685.681 231.488 684.302 232.906 683.291 234.771C682.278 236.637 681.773 238.899 681.773 241.557ZM730.312 252.391L730.193 243.7H731.622L751.617 223.343H760.306L739.001 244.891H738.406L730.312 252.391ZM723.766 269.057V208.105H730.789V269.057H723.766ZM752.808 269.057L734.954 246.438L739.953 241.557L761.735 269.057H752.808ZM813.146 269.057H792.495V208.105H813.563C819.612 208.105 824.81 209.326 829.155 211.766C833.519 214.186 836.871 217.668 839.212 222.212C841.552 226.756 842.724 232.192 842.724 238.521C842.724 244.87 841.543 250.327 839.182 254.891C836.841 259.454 833.46 262.956 829.035 265.397C824.631 267.837 819.335 269.057 813.146 269.057ZM803.535 259.504H812.61C816.855 259.504 820.397 258.73 823.233 257.183C826.07 255.615 828.202 253.284 829.63 250.188C831.059 247.073 831.773 243.185 831.773 238.521C831.773 233.859 831.059 229.989 829.63 226.915C828.202 223.82 826.09 221.508 823.292 219.98C820.515 218.432 817.063 217.659 812.937 217.659H803.535V259.504ZM872.97 269.95C868.388 269.95 864.43 268.998 861.098 267.093C857.785 265.168 855.236 262.45 853.45 258.938C851.665 255.406 850.773 251.25 850.773 246.468C850.773 241.766 851.665 237.638 853.45 234.087C855.256 230.516 857.775 227.738 861.008 225.754C864.242 223.75 868.041 222.748 872.405 222.748C875.222 222.748 877.88 223.204 880.38 224.117C882.898 225.01 885.121 226.398 887.045 228.284C888.989 230.169 890.517 232.569 891.628 235.486C892.738 238.383 893.294 241.835 893.294 245.843V249.147H855.83V241.885H882.969C882.948 239.821 882.502 237.985 881.629 236.378C880.757 234.752 879.536 233.472 877.969 232.54C876.422 231.607 874.617 231.14 872.554 231.14C870.352 231.14 868.418 231.676 866.752 232.747C865.085 233.8 863.786 235.189 862.853 236.914C861.94 238.621 861.475 240.496 861.454 242.539V248.879C861.454 251.537 861.94 253.82 862.913 255.724C863.885 257.609 865.243 259.058 866.99 260.069C868.735 261.061 870.779 261.557 873.119 261.557C874.686 261.557 876.104 261.339 877.374 260.902C878.644 260.446 879.745 259.782 880.677 258.909C881.609 258.035 882.314 256.954 882.789 255.664L892.847 256.796C892.212 259.454 891.002 261.776 889.217 263.76C887.452 265.724 885.19 267.251 882.433 268.343C879.675 269.414 876.521 269.95 872.97 269.95ZM922.641 269.95C918.058 269.95 914.101 268.998 910.767 267.093C907.455 265.168 904.906 262.45 903.121 258.938C901.335 255.406 900.442 251.25 900.442 246.468C900.442 241.766 901.335 237.638 903.121 234.087C904.925 230.516 907.445 227.738 910.679 225.754C913.913 223.75 917.711 222.748 922.076 222.748C924.892 222.748 927.55 223.204 930.05 224.117C932.569 225.01 934.791 226.398 936.715 228.284C938.659 230.169 940.187 232.569 941.297 235.486C942.408 238.383 942.964 241.835 942.964 245.843V249.147H905.501V241.885H932.638C932.619 239.821 932.173 237.985 931.3 236.378C930.427 234.752 929.207 233.472 927.64 232.54C926.092 231.607 924.287 231.14 922.224 231.14C920.022 231.14 918.088 231.676 916.422 232.747C914.755 233.8 913.456 235.189 912.523 236.914C911.611 238.621 911.145 240.496 911.125 242.539V248.879C911.125 251.537 911.611 253.82 912.583 255.724C913.555 257.609 914.914 259.058 916.659 260.069C918.405 261.061 920.448 261.557 922.79 261.557C924.357 261.557 925.775 261.339 927.045 260.902C928.314 260.446 929.415 259.782 930.348 258.909C931.28 258.035 931.984 256.954 932.46 255.664L942.517 256.796C941.883 259.454 940.673 261.776 938.888 263.76C937.122 265.724 934.861 267.251 932.103 268.343C929.345 269.414 926.191 269.95 922.641 269.95ZM952.077 286.2V223.343H962.67V230.903H963.295C963.85 229.792 964.634 228.61 965.645 227.361C966.657 226.091 968.026 225.01 969.752 224.117C971.478 223.204 973.68 222.748 976.358 222.748C979.889 222.748 983.073 223.65 985.909 225.456C988.766 227.242 991.028 229.891 992.694 233.402C994.38 236.895 995.223 241.18 995.223 246.26C995.223 251.28 994.4 255.545 992.753 259.058C991.107 262.569 988.866 265.248 986.028 267.093C983.192 268.938 979.978 269.861 976.387 269.861C973.769 269.861 971.596 269.425 969.871 268.551C968.145 267.678 966.757 266.627 965.706 265.397C964.674 264.147 963.87 262.966 963.295 261.855H962.849V286.2H952.077ZM962.64 246.2C962.64 249.156 963.056 251.746 963.89 253.968C964.743 256.191 965.963 257.926 967.55 259.177C969.157 260.406 971.1 261.021 973.382 261.021C975.763 261.021 977.756 260.387 979.363 259.117C980.97 257.827 982.18 256.071 982.993 253.849C983.826 251.607 984.243 249.057 984.243 246.2C984.243 243.363 983.836 240.843 983.023 238.64C982.21 236.438 981 234.712 979.393 233.462C977.786 232.212 975.782 231.587 973.382 231.587C971.081 231.587 969.127 232.192 967.52 233.402C965.913 234.613 964.693 236.309 963.86 238.492C963.047 240.674 962.64 243.244 962.64 246.2ZM1024.69 269.95C1020.1 269.95 1016.14 268.998 1012.81 267.093C1009.5 265.168 1006.94 262.45 1005.16 258.938C1003.38 255.406 1002.48 251.25 1002.48 246.468C1002.48 241.766 1003.38 237.638 1005.16 234.087C1006.97 230.516 1009.49 227.738 1012.72 225.754C1015.96 223.75 1019.76 222.748 1024.12 222.748C1026.94 222.748 1029.6 223.204 1032.09 224.117C1034.61 225.01 1036.84 226.398 1038.75 228.284C1040.7 230.169 1042.22 232.569 1043.33 235.486C1044.44 238.383 1045.01 241.835 1045.01 245.843V249.147H1007.55V241.885H1034.68C1034.66 239.821 1034.21 237.985 1033.34 236.378C1032.47 234.752 1031.25 233.472 1029.68 232.54C1028.13 231.607 1026.33 231.14 1024.27 231.14C1022.06 231.14 1020.13 231.676 1018.46 232.747C1016.79 233.8 1015.5 235.189 1014.56 236.914C1013.66 238.621 1013.19 240.496 1013.17 242.539V248.879C1013.17 251.537 1013.66 253.82 1014.62 255.724C1015.59 257.609 1016.96 259.058 1018.7 260.069C1020.45 261.061 1022.49 261.557 1024.83 261.557C1026.4 261.557 1027.81 261.339 1029.09 260.902C1030.36 260.446 1031.46 259.782 1032.39 258.909C1033.32 258.035 1034.03 256.954 1034.5 255.664L1044.56 256.796C1043.93 259.454 1042.71 261.776 1040.93 263.76C1039.16 265.724 1036.9 267.251 1034.15 268.343C1031.39 269.414 1028.23 269.95 1024.69 269.95ZM1054.12 269.057V223.343H1064.56V230.962H1065.04C1065.87 228.323 1067.3 226.289 1069.32 224.86C1071.37 223.412 1073.69 222.688 1076.32 222.688C1076.91 222.688 1077.57 222.718 1078.31 222.778C1079.06 222.817 1079.69 222.887 1080.18 222.985V232.896C1079.73 232.738 1079 232.599 1078.01 232.48C1077.04 232.341 1076.1 232.272 1075.19 232.272C1073.22 232.272 1071.45 232.699 1069.88 233.551C1068.35 234.385 1067.12 235.545 1066.23 237.033C1065.33 238.521 1064.89 240.238 1064.89 242.183V269.057H1054.12ZM1098.71 260.724L1098.23 263.938C1097.9 266.2 1097.38 268.621 1096.68 271.2C1096.01 273.78 1095.31 276.21 1094.57 278.492C1093.83 280.773 1093.23 282.589 1092.75 283.938H1087.4C1087.66 282.668 1088 280.991 1088.41 278.909C1088.83 276.825 1089.24 274.494 1089.66 271.915C1090.1 269.355 1090.45 266.736 1090.74 264.057L1091.09 260.724H1098.71ZM1185.28 227.153H1177.9C1177.46 225.029 1176.69 223.165 1175.6 221.558C1174.53 219.95 1173.22 218.601 1171.67 217.51C1170.15 216.399 1168.45 215.565 1166.59 215.01C1164.73 214.454 1162.78 214.177 1160.75 214.177C1157.07 214.177 1153.73 215.109 1150.73 216.974C1147.75 218.839 1145.39 221.587 1143.61 225.218C1141.87 228.849 1141 233.304 1141 238.581C1141 243.859 1141.87 248.313 1143.61 251.945C1145.39 255.575 1147.75 258.323 1150.73 260.188C1153.73 262.053 1157.07 262.986 1160.75 262.986C1162.78 262.986 1164.73 262.708 1166.59 262.153C1168.45 261.597 1170.15 260.774 1171.67 259.682C1173.22 258.571 1174.53 257.212 1175.6 255.605C1176.69 253.978 1177.46 252.113 1177.9 250.01H1185.28C1184.72 253.125 1183.71 255.913 1182.24 258.373C1180.77 260.833 1178.94 262.927 1176.77 264.652C1174.59 266.359 1172.13 267.659 1169.41 268.551C1166.71 269.444 1163.83 269.89 1160.75 269.89C1155.56 269.89 1150.94 268.621 1146.89 266.081C1142.84 263.541 1139.66 259.93 1137.34 255.248C1135.02 250.566 1133.86 245.01 1133.86 238.581C1133.86 232.153 1135.02 226.597 1137.34 221.914C1139.66 217.232 1142.84 213.621 1146.89 211.082C1150.94 208.541 1155.56 207.271 1160.75 207.271C1163.83 207.271 1166.71 207.719 1169.41 208.611C1172.13 209.504 1174.59 210.814 1176.77 212.54C1178.94 214.246 1180.77 216.329 1182.24 218.789C1183.71 221.23 1184.72 224.017 1185.28 227.153ZM1214.82 270.009C1210.69 270.009 1207.07 269.027 1203.95 267.063C1200.86 265.099 1198.44 262.351 1196.69 258.819C1194.97 255.287 1194.1 251.16 1194.1 246.438C1194.1 241.676 1194.97 237.52 1196.69 233.968C1198.44 230.416 1200.86 227.658 1203.95 225.695C1207.07 223.73 1210.69 222.748 1214.82 222.748C1218.94 222.748 1222.55 223.73 1225.64 225.695C1228.76 227.658 1231.18 230.416 1232.91 233.968C1234.66 237.52 1235.52 241.676 1235.52 246.438C1235.52 251.16 1234.66 255.287 1232.91 258.819C1231.18 262.351 1228.76 265.099 1225.64 267.063C1222.55 269.027 1218.94 270.009 1214.82 270.009ZM1214.82 263.7C1217.95 263.7 1220.53 262.896 1222.55 261.289C1224.57 259.682 1226.07 257.57 1227.05 254.95C1228.02 252.331 1228.51 249.494 1228.51 246.438C1228.51 243.382 1228.02 240.536 1227.05 237.897C1226.07 235.258 1224.57 233.124 1222.55 231.498C1220.53 229.871 1217.95 229.058 1214.82 229.058C1211.68 229.058 1209.1 229.871 1207.08 231.498C1205.05 233.124 1203.55 235.258 1202.59 237.897C1201.62 240.536 1201.13 243.382 1201.13 246.438C1201.13 249.494 1201.62 252.331 1202.59 254.95C1203.55 257.57 1205.05 259.682 1207.08 261.289C1209.1 262.896 1211.68 263.7 1214.82 263.7ZM1263.51 270.009C1259.7 270.009 1256.33 269.048 1253.42 267.123C1250.5 265.179 1248.22 262.44 1246.57 258.909C1244.92 255.357 1244.11 251.16 1244.11 246.32C1244.11 241.518 1244.92 237.351 1246.57 233.819C1248.22 230.288 1250.51 227.559 1253.45 225.634C1256.38 223.711 1259.77 222.748 1263.62 222.748C1266.59 222.748 1268.95 223.244 1270.68 224.236C1272.42 225.208 1273.75 226.319 1274.66 227.57C1275.6 228.799 1276.32 229.811 1276.83 230.605H1277.43V208.105H1284.45V269.057H1277.67V262.034H1276.83C1276.32 262.867 1275.59 263.919 1274.63 265.188C1273.68 266.438 1272.32 267.559 1270.56 268.551C1268.79 269.523 1266.44 270.009 1263.51 270.009ZM1264.46 263.7C1267.28 263.7 1269.65 262.966 1271.6 261.498C1273.54 260.01 1275.02 257.956 1276.04 255.337C1277.04 252.698 1277.55 249.652 1277.55 246.2C1277.55 242.788 1277.05 239.801 1276.06 237.242C1275.07 234.662 1273.6 232.659 1271.66 231.23C1269.71 229.782 1267.31 229.058 1264.46 229.058C1261.48 229.058 1259 229.821 1257.02 231.349C1255.06 232.856 1253.58 234.911 1252.58 237.51C1251.61 240.089 1251.12 242.986 1251.12 246.2C1251.12 249.454 1251.62 252.41 1252.61 255.069C1253.63 257.708 1255.12 259.811 1257.07 261.379C1259.06 262.927 1261.52 263.7 1264.46 263.7ZM1317.45 270.009C1313.05 270.009 1309.25 269.038 1306.05 267.093C1302.88 265.129 1300.43 262.391 1298.71 258.878C1297 255.347 1296.15 251.24 1296.15 246.557C1296.15 241.875 1297 237.748 1298.71 234.176C1300.43 230.585 1302.83 227.788 1305.91 225.783C1309 223.759 1312.61 222.748 1316.73 222.748C1319.12 222.748 1321.47 223.144 1323.79 223.939C1326.11 224.732 1328.22 226.021 1330.13 227.807C1332.03 229.573 1333.55 231.914 1334.68 234.831C1335.81 237.748 1336.38 241.339 1336.38 245.605V248.581H1301.14V242.51H1329.23C1329.23 239.931 1328.72 237.629 1327.69 235.605C1326.67 233.582 1325.23 231.984 1323.34 230.813C1321.48 229.642 1319.28 229.058 1316.73 229.058C1313.94 229.058 1311.52 229.752 1309.47 231.14C1307.46 232.51 1305.9 234.296 1304.81 236.497C1303.72 238.7 1303.17 241.061 1303.17 243.581V247.628C1303.17 251.081 1303.76 254.008 1304.95 256.409C1306.16 258.79 1307.84 260.605 1309.98 261.855C1312.12 263.085 1314.62 263.7 1317.45 263.7C1319.3 263.7 1320.96 263.442 1322.45 262.927C1323.96 262.391 1325.26 261.597 1326.35 260.546C1327.44 259.474 1328.28 258.145 1328.87 256.557L1335.66 258.462C1334.94 260.764 1333.75 262.787 1332.06 264.534C1330.37 266.259 1328.29 267.609 1325.81 268.581C1323.33 269.534 1320.54 270.009 1317.45 270.009ZM1403.32 224.86C1403.05 222.261 1401.88 220.238 1399.82 218.789C1397.77 217.341 1395.12 216.617 1391.85 216.617C1389.54 216.617 1387.57 216.964 1385.92 217.659C1384.27 218.353 1383.02 219.295 1382.14 220.486C1381.26 221.677 1380.83 223.035 1380.81 224.563C1380.81 225.833 1381.09 226.934 1381.66 227.867C1382.26 228.8 1383.07 229.593 1384.08 230.248C1385.08 230.883 1386.2 231.418 1387.44 231.855C1388.67 232.291 1389.91 232.659 1391.15 232.956L1396.87 234.385C1399.17 234.921 1401.38 235.645 1403.51 236.558C1405.65 237.47 1407.56 238.621 1409.25 240.009C1410.95 241.398 1412.31 243.075 1413.3 245.039C1414.28 247.004 1414.78 249.306 1414.78 251.945C1414.78 255.515 1413.87 258.66 1412.04 261.379C1410.22 264.077 1407.58 266.19 1404.13 267.718C1400.7 269.226 1396.54 269.98 1391.66 269.98C1386.92 269.98 1382.8 269.245 1379.32 267.778C1375.85 266.309 1373.13 264.166 1371.16 261.349C1369.22 258.531 1368.17 255.099 1368 251.051H1378.87C1379.02 253.174 1379.69 254.94 1380.84 256.349C1381.98 257.758 1383.48 258.809 1385.33 259.504C1387.19 260.198 1389.27 260.546 1391.57 260.546C1393.98 260.546 1396.07 260.188 1397.89 259.474C1399.71 258.74 1401.14 257.728 1402.16 256.438C1403.2 255.128 1403.72 253.601 1403.74 251.855C1403.72 250.267 1403.25 248.958 1402.35 247.927C1401.43 246.875 1400.16 246.002 1398.51 245.307C1396.88 244.593 1394.97 243.958 1392.79 243.403L1385.86 241.616C1380.84 240.327 1376.88 238.372 1373.96 235.754C1371.06 233.115 1369.61 229.613 1369.61 225.247C1369.61 221.656 1370.58 218.511 1372.53 215.813C1374.49 213.114 1377.16 211.021 1380.53 209.533C1383.9 208.025 1387.72 207.271 1391.99 207.271C1396.32 207.271 1400.11 208.025 1403.36 209.533C1406.63 211.021 1409.2 213.095 1411.07 215.753C1412.93 218.393 1413.89 221.428 1413.95 224.86H1403.32ZM1424.15 269.057V223.343H1434.44V231.111H1434.98C1435.93 228.492 1437.51 226.448 1439.71 224.98C1441.92 223.492 1444.55 222.748 1447.6 222.748C1450.7 222.748 1453.3 223.502 1455.42 225.01C1457.56 226.498 1459.07 228.532 1459.94 231.111H1460.42C1461.43 228.571 1463.14 226.547 1465.54 225.04C1467.96 223.512 1470.83 222.748 1474.14 222.748C1478.35 222.748 1481.78 224.077 1484.44 226.735C1487.1 229.395 1488.42 233.274 1488.42 238.372V269.057H1477.63V240.04C1477.63 237.202 1476.87 235.129 1475.36 233.819C1473.86 232.49 1472 231.825 1469.82 231.825C1467.23 231.825 1465.19 232.638 1463.72 234.266C1462.28 235.873 1461.55 237.966 1461.55 240.545V269.057H1450.99V239.593C1450.99 237.232 1450.28 235.347 1448.84 233.938C1447.44 232.53 1445.59 231.825 1443.31 231.825C1441.76 231.825 1440.36 232.222 1439.09 233.015C1437.81 233.789 1436.8 234.89 1436.05 236.319C1435.3 237.728 1434.92 239.375 1434.92 241.26V269.057H1424.15ZM1512.51 269.98C1509.6 269.98 1507 269.464 1504.67 268.433C1502.37 267.381 1500.55 265.834 1499.2 263.789C1497.87 261.745 1497.21 259.226 1497.21 256.23C1497.21 253.651 1497.69 251.518 1498.63 249.831C1499.59 248.145 1500.88 246.795 1502.53 245.784C1504.18 244.772 1506.04 244.008 1508.1 243.491C1510.18 242.956 1512.33 242.57 1514.55 242.331C1517.23 242.053 1519.41 241.806 1521.07 241.587C1522.74 241.349 1523.95 240.992 1524.71 240.515C1525.48 240.019 1525.87 239.256 1525.87 238.224V238.046C1525.87 235.803 1525.2 234.067 1523.87 232.837C1522.54 231.607 1520.62 230.992 1518.13 230.992C1515.49 230.992 1513.39 231.567 1511.84 232.718C1510.32 233.869 1509.29 235.227 1508.76 236.796L1498.69 235.367C1499.49 232.589 1500.8 230.267 1502.63 228.403C1504.45 226.517 1506.68 225.109 1509.32 224.176C1511.96 223.224 1514.87 222.748 1518.07 222.748C1520.27 222.748 1522.46 223.006 1524.65 223.521C1526.83 224.038 1528.82 224.891 1530.62 226.082C1532.43 227.252 1533.87 228.849 1534.97 230.872C1536.08 232.896 1536.63 235.426 1536.63 238.462V269.057H1526.28V262.777H1525.92C1525.27 264.047 1524.35 265.238 1523.16 266.349C1521.99 267.441 1520.51 268.323 1518.72 268.998C1516.96 269.653 1514.88 269.98 1512.51 269.98ZM1515.3 262.063C1517.47 262.063 1519.34 261.636 1520.93 260.784C1522.51 259.91 1523.73 258.759 1524.58 257.331C1525.46 255.902 1525.89 254.345 1525.89 252.659V247.272C1525.55 247.549 1524.98 247.808 1524.17 248.045C1523.37 248.283 1522.48 248.492 1521.49 248.67C1520.5 248.848 1519.51 249.007 1518.54 249.147C1517.57 249.285 1516.73 249.405 1516.01 249.503C1514.41 249.722 1512.97 250.079 1511.7 250.575C1510.43 251.071 1509.43 251.765 1508.7 252.659C1507.96 253.531 1507.6 254.663 1507.6 256.051C1507.6 258.035 1508.32 259.533 1509.77 260.546C1511.21 261.557 1513.06 262.063 1515.3 262.063ZM1547.47 269.057V223.343H1557.91V230.962H1558.39C1559.22 228.323 1560.65 226.289 1562.68 224.86C1564.71 223.412 1567.04 222.688 1569.66 222.688C1570.26 222.688 1570.93 222.718 1571.66 222.778C1572.41 222.817 1573.03 222.887 1573.53 222.985V232.896C1573.07 232.738 1572.35 232.599 1571.36 232.48C1570.39 232.341 1569.45 232.272 1568.53 232.272C1566.57 232.272 1564.8 232.699 1563.24 233.551C1561.69 234.385 1560.47 235.545 1559.58 237.033C1558.68 238.521 1558.24 240.238 1558.24 242.183V269.057H1547.47ZM1605.97 223.343V231.676H1579.69V223.343H1605.97ZM1586.18 212.39H1596.95V255.308C1596.95 256.756 1597.17 257.867 1597.61 258.641C1598.06 259.395 1598.66 259.91 1599.39 260.188C1600.12 260.466 1600.94 260.605 1601.83 260.605C1602.51 260.605 1603.12 260.555 1603.68 260.456C1604.25 260.357 1604.69 260.268 1604.98 260.188L1606.8 268.611C1606.23 268.81 1605.4 269.027 1604.33 269.266C1603.28 269.504 1601.99 269.643 1600.46 269.682C1597.76 269.762 1595.34 269.355 1593.17 268.462C1591.01 267.55 1589.29 266.141 1588.03 264.236C1586.77 262.331 1586.16 259.95 1586.18 257.093V212.39ZM1634.72 269.95C1630.14 269.95 1626.17 268.998 1622.84 267.093C1619.53 265.168 1616.99 262.45 1615.2 258.938C1613.41 255.406 1612.52 251.25 1612.52 246.468C1612.52 241.766 1613.41 237.638 1615.2 234.087C1617 230.516 1619.52 227.738 1622.75 225.754C1625.99 223.75 1629.79 222.748 1634.15 222.748C1636.97 222.748 1639.63 223.204 1642.12 224.117C1644.65 225.01 1646.87 226.398 1648.8 228.284C1650.74 230.169 1652.27 232.569 1653.38 235.486C1654.49 238.383 1655.04 241.835 1655.04 245.843V249.147H1617.58V241.885H1644.72C1644.7 239.821 1644.25 237.985 1643.38 236.378C1642.5 234.752 1641.29 233.472 1639.72 232.54C1638.17 231.607 1636.37 231.14 1634.3 231.14C1632.1 231.14 1630.17 231.676 1628.5 232.747C1626.84 233.8 1625.53 235.189 1624.6 236.914C1623.69 238.621 1623.22 240.496 1623.2 242.539V248.879C1623.2 251.537 1623.69 253.82 1624.66 255.724C1625.64 257.609 1626.99 259.058 1628.74 260.069C1630.48 261.061 1632.53 261.557 1634.86 261.557C1636.43 261.557 1637.86 261.339 1639.12 260.902C1640.39 260.446 1641.49 259.782 1642.43 258.909C1643.36 258.035 1644.06 256.954 1644.54 255.664L1654.59 256.796C1653.96 259.454 1652.75 261.776 1650.96 263.76C1649.2 265.724 1646.94 267.251 1644.18 268.343C1641.42 269.414 1638.27 269.95 1634.72 269.95ZM1664.15 269.057V223.343H1674.6V230.962H1675.08C1675.9 228.323 1677.34 226.289 1679.36 224.86C1681.4 223.412 1683.74 222.688 1686.35 222.688C1686.94 222.688 1687.62 222.718 1688.35 222.778C1689.1 222.817 1689.73 222.887 1690.22 222.985V232.896C1689.77 232.738 1689.04 232.599 1688.04 232.48C1687.08 232.341 1686.13 232.272 1685.22 232.272C1683.26 232.272 1681.5 232.699 1679.93 233.551C1678.38 234.385 1677.16 235.545 1676.26 237.033C1675.37 238.521 1674.93 240.238 1674.93 242.183V269.057H1664.15Z" fill="#191B58"/>
<defs>
<linearGradient id="paint0_linear_408_43" x1="68.5633" y1="53.3386" x2="385.426" y2="260.717" gradientUnits="userSpaceOnUse">
<stop stop-color="#176698"/>
<stop offset="1" stop-color="#178F7A"/>
</linearGradient>
</defs>
</svg>
