<svg width="424" height="470" viewBox="0 0 424 470" fill="none" xmlns="http://www.w3.org/2000/svg">
<path d="M416.037 109.71H274.604V40.4308C274.591 30.2077 270.7 20.3702 263.717 12.9036C256.734 5.43696 247.179 0.897014 236.979 0.199874C234.196 -0.239422 40.1063 0.179394 37.2995 0.199874C27.1007 0.897758 17.5462 5.43803 10.5639 12.9046C3.5816 20.3711 -0.308784 30.2082 -0.322266 40.4308V428.822C-0.310069 439.515 3.94316 449.766 11.5043 457.327C19.0655 464.888 29.3171 469.141 40.01 469.153H234.272C244.965 469.141 255.217 464.888 262.778 457.327C270.339 449.766 274.592 439.515 274.604 428.822V392.586C274.604 390.414 273.741 388.33 272.205 386.794C270.669 385.258 268.585 384.394 266.412 384.394C264.24 384.394 262.156 385.258 260.62 386.794C259.083 388.33 258.22 390.414 258.22 392.586V428.822C258.213 435.171 255.688 441.258 251.198 445.747C246.708 450.237 240.621 452.762 234.272 452.769H40.01C33.6609 452.762 27.5738 450.237 23.0842 445.747C18.5946 441.258 16.0691 435.171 16.0617 428.822V40.4308C16.0692 34.9562 17.9492 29.6489 21.3895 25.3903C24.8298 21.1317 29.6233 18.1782 34.974 17.0201L43.3524 27.7342C49.1895 35.2466 56.6714 41.3208 65.2229 45.4898C73.7744 49.6587 83.1679 51.8116 92.6815 51.7829H181.603C191.116 51.8117 200.51 49.6588 209.062 45.4896C217.614 41.3204 225.096 35.246 230.933 27.7332L239.307 17.0201C244.658 18.1781 249.452 21.1317 252.892 25.3902C256.332 29.6488 258.213 34.9561 258.22 40.4308V109.71H128.744C126.571 109.71 124.487 110.573 122.951 112.109C121.415 113.645 120.552 115.729 120.552 117.902V355.851C120.552 358.024 121.415 360.108 122.951 361.644C124.487 363.18 126.571 364.043 128.744 364.043H416.037C418.21 364.043 420.293 363.18 421.83 361.644C423.366 360.108 424.229 358.024 424.229 355.851V117.902C424.229 115.729 423.366 113.645 421.83 112.109C420.293 110.573 418.21 109.71 416.037 109.71ZM218.024 17.6406C213.715 23.1876 208.191 27.6725 201.877 30.7506C195.563 33.8288 188.627 35.4182 181.603 35.3968H92.6795C85.4072 35.4093 78.235 33.7025 71.7479 30.4156C65.2608 27.1287 59.6426 22.3549 55.3516 16.4835H218.931L218.024 17.6406ZM136.936 126.094H407.845V158.042H136.936V126.094ZM136.936 347.659V174.429H407.845V347.659H136.936Z" fill="#E7AC4E"/>
<path d="M121.407 418.23C110.588 418.56 110.573 434.278 121.407 434.614H152.877C163.696 434.282 163.711 418.564 152.877 418.23H121.407ZM158.558 134.18C148.129 134.502 148.132 149.643 158.558 149.958C168.986 149.634 168.983 134.501 158.558 134.18ZM183.001 134.18C172.572 134.502 172.574 149.643 183.001 149.958C193.429 149.634 193.426 134.501 183.001 134.18ZM207.444 134.18C197.015 134.502 197.017 149.643 207.444 149.958C217.872 149.634 217.869 134.501 207.444 134.18ZM391.534 134.18C381.106 134.502 381.109 149.643 391.534 149.958C401.963 149.634 401.958 134.501 391.534 134.18Z" fill="#E7AC4E"/>
</svg>
