<svg width="172" height="28" viewBox="0 0 172 28" fill="none" xmlns="http://www.w3.org/2000/svg">
<path d="M0 5.5L9 7.19521V21.5H0V5.5Z" fill="#595959"/>
<path d="M9 3.7383L23 0.5V27.5L15.7514 24.2593V8.707L9 6.87244V3.7383Z" fill="#E29578"/>
<path d="M1.5 14.5C1.77614 14.5 2 14.2761 2 14C2 13.7239 1.77614 13.5 1.5 13.5C1.22386 13.5 1 13.7239 1 14C1 14.2761 1.22386 14.5 1.5 14.5Z" fill="white"/>
<path d="M43.992 20.5L42.264 9.3H39.832L36.792 16.18L33.752 9.3H31.336L29.576 20.5H32.04L33.144 13.204L36.488 20.484H37.08L40.424 13.204L41.528 20.5H43.992ZM51.0764 20.756C54.4844 20.756 57.0284 18.244 57.0284 14.9C57.0284 11.572 54.4844 9.06 51.0764 9.06C47.6524 9.06 45.0924 11.588 45.0924 14.9C45.0924 18.228 47.6524 20.756 51.0764 20.756ZM51.0764 18.468C49.0764 18.468 47.5564 16.916 47.5564 14.9C47.5564 12.884 49.0764 11.348 51.0764 11.348C53.0764 11.348 54.5644 12.868 54.5644 14.9C54.5644 16.932 53.0764 18.468 51.0764 18.468ZM65.5715 9.3L62.8195 17.22L59.9875 9.3H57.3155L61.6835 20.5H63.9715L68.2115 9.3H65.5715ZM72.1179 18.26V15.956H76.0059V13.764H72.1179V11.54H76.4219V9.3H69.7019V20.5H76.5979V18.26H72.1179ZM84.7994 20.5H87.5034L85.0234 16.276C86.2714 15.668 87.0714 14.484 87.0714 13.012C87.0714 10.852 85.3914 9.3 83.1514 9.3H78.6394V20.5H81.0554V16.692H82.6074L84.7994 20.5ZM81.0554 11.54H82.9914C84.0154 11.54 84.6074 12.164 84.6074 12.996C84.6074 13.844 84.0154 14.452 82.9914 14.452H81.0554V11.54ZM92.2415 20.692C94.4655 20.692 96.0815 19.06 96.0815 16.788V9.3H94.6895V16.74C94.6895 18.244 93.6335 19.316 92.2415 19.316C90.8175 19.316 89.7615 18.244 89.7615 16.74V16.564H88.3695V16.788C88.3695 19.06 90.0335 20.692 92.2415 20.692ZM103.276 20.692C105.788 20.692 107.66 18.884 107.66 16.34V9.3H106.252V16.228C106.252 18.084 105.004 19.316 103.276 19.316C101.532 19.316 100.3 18.084 100.3 16.228V9.3H98.8764V16.34C98.8764 18.884 100.748 20.692 103.276 20.692ZM118.135 9.3V17.94L111.863 9.3H110.583V20.5H111.959V11.764L118.327 20.5H119.511V9.3H118.135ZM127.543 20.676C130.183 20.676 132.263 19.092 132.903 16.564H131.479C130.887 18.276 129.431 19.3 127.543 19.3C125.047 19.3 123.239 17.492 123.239 14.916C123.239 12.34 125.047 10.5 127.543 10.5C129.383 10.5 130.823 11.476 131.415 13.092H132.855C132.215 10.676 130.135 9.14 127.543 9.14C124.215 9.14 121.799 11.556 121.799 14.916C121.799 18.26 124.215 20.676 127.543 20.676ZM141.841 9.3H133.633V10.628H137.041V20.5H138.433V10.628H141.841V9.3ZM143.708 20.5H145.116V9.3H143.708V20.5ZM153.28 20.692C156.672 20.692 159.136 18.212 159.136 14.916C159.136 11.604 156.672 9.124 153.28 9.124C149.888 9.124 147.408 11.604 147.408 14.916C147.408 18.212 149.888 20.692 153.28 20.692ZM153.28 19.316C150.736 19.316 148.848 17.412 148.848 14.916C148.848 12.404 150.736 10.5 153.28 10.5C155.824 10.5 157.712 12.388 157.712 14.916C157.712 17.428 155.824 19.316 153.28 19.316ZM168.994 9.3V17.94L162.722 9.3H161.442V20.5H162.818V11.764L169.186 20.5H170.37V9.3H168.994Z" fill="#595959"/>
</svg>
