<svg width="512" height="512" viewBox="0 0 512 512" fill="none" xmlns="http://www.w3.org/2000/svg">
<path d="M140.993 422.272C114.577 437.44 84.8009 442.88 67.1689 444.832C69.1209 427.2 74.5609 397.424 89.7129 370.992C90.6812 369.351 91.3141 367.534 91.575 365.646C91.8359 363.759 91.7196 361.838 91.2327 359.996C90.7459 358.153 89.8983 356.426 88.739 354.914C87.5797 353.401 86.1318 352.134 84.4791 351.186C82.8265 350.237 81.002 349.626 79.1115 349.388C77.2209 349.149 75.3019 349.289 73.4655 349.797C71.6292 350.306 69.9121 351.175 68.4138 352.352C66.9155 353.529 65.6657 354.992 64.7369 356.656C37.6009 403.984 37.2809 458.032 37.2809 460.32C37.2809 464.139 38.7981 467.802 41.4986 470.502C44.1991 473.203 47.8618 474.72 51.6809 474.72C53.9689 474.72 108.017 474.4 155.345 447.264C156.986 446.322 158.425 445.065 159.581 443.567C160.736 442.068 161.585 440.356 162.079 438.53C162.573 436.703 162.703 434.797 162.46 432.92C162.217 431.043 161.607 429.233 160.665 427.592C159.723 425.951 158.466 424.512 156.968 423.356C155.469 422.201 153.757 421.352 151.931 420.858C150.104 420.364 148.198 420.234 146.321 420.477C144.444 420.72 142.634 421.33 140.993 422.272ZM494.545 52.3999C494.654 47.7751 493.819 43.1767 492.091 38.8853C490.364 34.5939 487.78 30.6995 484.497 27.4399C477.857 20.7999 468.257 17.5199 459.585 17.4399C419.713 18.1919 312.161 29.6319 210.401 120.976C192.257 113.92 164.913 103.44 144.161 106.112C113.633 110.032 68.5289 151.568 24.3529 195.888C21.4811 198.744 19.3983 202.295 18.3075 206.196C17.2167 210.096 17.1552 214.213 18.1289 218.144C20.0809 226.24 26.0009 232.592 33.9369 235.136L104.177 257.696C98.7359 267.555 93.5502 277.553 88.6249 287.68C85.5359 294.098 84.5201 301.318 85.7185 308.339C86.9168 315.36 90.27 321.834 95.3129 326.864L185.121 416.672C190.157 421.711 196.632 425.062 203.654 426.263C210.676 427.464 217.897 426.455 224.321 423.376C234.753 418.336 244.641 413.12 254.273 407.84L276.849 478.064C278.363 482.876 281.38 487.076 285.459 490.045C289.537 493.015 294.46 494.597 299.505 494.56C305.665 494.56 311.601 492.144 316.113 487.648C360.433 443.472 401.969 398.384 405.873 367.872C408.577 346.928 398.065 319.744 391.009 301.6C482.337 199.84 493.793 92.2879 494.545 52.3999ZM50.6889 210.288C74.1289 186.944 125.041 137.616 147.825 134.688C157.985 133.392 173.937 138.208 187.409 143.088C163.617 167.68 140.513 197.152 118.977 232.208L50.6889 210.288ZM211.793 397.44C210.754 397.92 209.592 398.07 208.465 397.87C207.338 397.669 206.299 397.129 205.489 396.32L115.665 306.496C114.857 305.685 114.318 304.645 114.12 303.518C113.923 302.39 114.077 301.229 114.561 300.192C226.417 68.4959 407.345 47.2479 460.145 46.2559H460.273C462.177 46.2559 463.425 47.1039 464.161 47.8399C464.688 48.3683 465.103 48.9979 465.381 49.6908C465.659 50.3837 465.793 51.1256 465.777 51.8719C464.753 104.672 443.489 285.6 211.793 397.44ZM377.313 364.192C374.385 386.96 325.057 437.888 301.713 461.312L279.761 393.04C314.849 371.504 344.321 348.384 368.913 324.592C373.809 338.048 378.625 353.968 377.313 364.192Z" fill="#9557E5"/>
<path d="M386.049 211.424C397.361 200.078 403.713 184.71 403.713 168.688C403.713 152.666 397.361 137.298 386.049 125.952C363.201 103.136 323.393 103.136 300.577 125.952C289.169 137.36 282.881 152.544 282.881 168.688C282.881 184.832 289.185 200.016 300.577 211.424C311.985 222.832 327.169 229.12 343.313 229.12C359.457 229.12 374.625 222.832 386.049 211.424ZM365.665 191.056C353.713 203.024 332.865 203.024 320.945 191.056C314.961 185.088 311.665 177.136 311.665 168.688C311.665 160.24 314.961 152.304 320.945 146.32C323.873 143.375 327.356 141.039 331.193 139.449C335.03 137.859 339.144 137.045 343.297 137.056C349.55 137.063 355.661 138.923 360.858 142.4C366.055 145.877 370.106 150.815 372.499 156.592C374.892 162.369 375.52 168.726 374.303 174.86C373.087 180.993 370.081 186.629 365.665 191.056Z" fill="#9557E5"/>
</svg>
