<svg width="458" height="471" viewBox="0 0 458 471" fill="none" xmlns="http://www.w3.org/2000/svg">
<g clip-path="url(#clip0_2109_7)">
<path d="M85 95.6665C93.8366 95.6665 101 88.5031 101 79.6665C101 70.8299 93.8366 63.6665 85 63.6665C76.1634 63.6665 69 70.8299 69 79.6665C69 88.5031 76.1634 95.6665 85 95.6665Z" fill="#D54199"/>
<path d="M138.332 95.6665C147.169 95.6665 154.332 88.5031 154.332 79.6665C154.332 70.8299 147.169 63.6665 138.332 63.6665C129.495 63.6665 122.332 70.8299 122.332 79.6665C122.332 88.5031 129.495 95.6665 138.332 95.6665Z" fill="#D54199"/>
<path d="M191.666 95.6665C200.503 95.6665 207.666 88.5031 207.666 79.6665C207.666 70.8299 200.503 63.6665 191.666 63.6665C182.829 63.6665 175.666 70.8299 175.666 79.6665C175.666 88.5031 182.829 95.6665 191.666 95.6665Z" fill="#D54199"/>
<path fill-rule="evenodd" clip-rule="evenodd" d="M458.333 250.333V68.9998C458.333 50.6115 451.028 32.9763 438.025 19.9738C425.023 6.97124 407.388 -0.333496 388.999 -0.333496H68.9994C50.611 -0.333496 32.9758 6.97124 19.9733 19.9738C6.97075 32.9763 -0.333984 50.6115 -0.333984 68.9998V389C-0.333984 407.388 6.97075 425.023 19.9733 438.026C32.9758 451.028 50.611 458.333 68.9994 458.333H228.999C233.243 458.333 237.312 456.647 240.313 453.647C243.314 450.646 244.999 446.577 244.999 442.333C244.999 438.09 243.314 434.02 240.313 431.019C237.312 428.019 233.243 426.333 228.999 426.333H68.9994C59.0979 426.333 49.6021 422.4 42.6007 415.398C35.5993 408.397 31.666 398.901 31.666 389V68.9998C31.666 48.3705 48.37 31.6665 68.9994 31.6665H388.999C409.629 31.6665 426.333 48.3705 426.333 68.9998V250.333C426.333 254.577 428.018 258.646 431.019 261.647C434.02 264.647 438.089 266.333 442.333 266.333C446.576 266.333 450.646 264.647 453.646 261.647C456.647 258.646 458.333 254.577 458.333 250.333Z" fill="#D54199"/>
<path fill-rule="evenodd" clip-rule="evenodd" d="M442.333 127.667H15.666C11.4226 127.667 7.35289 129.352 4.35231 132.353C1.35173 135.353 -0.333984 139.423 -0.333984 143.667C-0.333984 147.91 1.35173 151.98 4.35231 154.98C7.35289 157.981 11.4226 159.667 15.666 159.667H442.333C446.576 159.667 450.646 157.981 453.646 154.98C456.647 151.98 458.333 147.91 458.333 143.667C458.333 139.423 456.647 135.353 453.646 132.353C450.646 129.352 446.576 127.667 442.333 127.667ZM430.749 433.16L385.927 369.16C384.755 367.363 383.233 365.821 381.453 364.624C379.672 363.427 377.669 362.601 375.563 362.194C373.457 361.787 371.29 361.808 369.192 362.255C367.094 362.703 365.107 363.567 363.35 364.798C361.592 366.029 360.101 367.6 358.963 369.419C357.825 371.238 357.065 373.267 356.727 375.385C356.39 377.504 356.481 379.669 356.997 381.751C357.513 383.833 358.442 385.791 359.73 387.507L404.53 451.507C405.735 453.228 407.267 454.695 409.038 455.825C410.81 456.954 412.787 457.724 414.856 458.089C416.925 458.455 419.046 458.409 421.098 457.955C423.149 457.501 425.091 456.647 426.813 455.443C428.534 454.238 430.002 452.706 431.131 450.934C432.261 449.162 433.03 447.185 433.396 445.116C433.761 443.047 433.715 440.926 433.261 438.875C432.807 436.823 431.953 434.881 430.749 433.16Z" fill="#D54199"/>
<path fill-rule="evenodd" clip-rule="evenodd" d="M443.761 316.125L305.734 236.488C300.932 233.734 295.445 232.404 289.914 232.653C284.383 232.902 279.038 234.721 274.503 237.896C269.967 241.071 266.429 245.471 264.303 250.582C262.176 255.694 261.548 261.305 262.492 266.76L290.118 423.709C291.097 429.279 293.675 434.443 297.54 438.572C301.404 442.7 306.387 445.614 311.879 446.958C317.372 448.302 323.138 448.017 328.471 446.139C333.805 444.261 338.477 440.87 341.916 436.381L379.334 387.613L437.958 369.139C443.347 367.435 448.124 364.201 451.708 359.831C455.292 355.46 457.527 350.142 458.142 344.524C458.757 338.905 457.725 333.23 455.172 328.187C452.618 323.145 448.654 318.954 443.761 316.125ZM422.108 340.573L364.892 358.621C361.761 359.596 359.01 361.52 357.02 364.125L320.497 411.741L295.068 267.272L422.108 340.573Z" fill="#D54199"/>
</g>
<defs>
<clipPath id="clip0_2109_7">
<rect width="458" height="471" fill="white"/>
</clipPath>
</defs>
</svg>
